<?xml version="1.0" encoding="utf-8"?>
<!-- Svg Vector Icons : http://www.onlinewebfonts.com/icon -->
<!DOCTYPE svg PUBLIC "-//W3C//DTD SVG 1.1//EN" "http://www.w3.org/Graphics/SVG/1.1/DTD/svg11.dtd">
<svg version="1.1" xmlns="http://www.w3.org/2000/svg" xmlns:xlink="http://www.w3.org/1999/xlink" x="0px" y="0px" viewBox="0 0 1000 1000" enable-background="new 0 0 1000 1000" xml:space="preserve">
<metadata> Svg Vector Icons : http://www.onlinewebfonts.com/icon </metadata>
<g><g transform="translate(0.000000,339.000000) scale(0.100000,-0.100000)"><path fill= "#d8dee9" d="M8150.3,1585.5c-325.4-59.3-350.3-68.9-1629.1-639.4c-541.8-243.1-995.5-440.3-1008.9-440.3c-11.5,0-513.1,151.2-1114.2,335c-601.1,183.8-1152.5,346.5-1227.1,363.7c-158.9,38.3-474.8,42.1-622.2,11.5c-166.6-36.4-499.7-208.7-549.4-287.2c-57.4-84.2-55.5-179.9,3.8-281.4c53.6-91.9,130.2-141.7,1029.9-687.3C3326-216,3559.6-367.2,3550-374.9c-28.7-24.9-1575.5-708.3-1606.2-708.3c-47.9,0-95.7,32.5-543.7,363.7C846.9-307.9,846.9-307.9,615.3-307.9c-158.9-1.9-193.4-7.7-279.5-51.7C169.2-447.6,85-585.4,102.2-746.3c9.6-74.7,675.8-1598.5,773.4-1765.1c63.2-109.1,235.5-229.7,398.2-281.4c118.7-36.4,176.1-42.1,451.8-40.2c656.6,1.9,1391.8,210.6,2674.4,760c375.2,158.9,425,176.1,417.3,139.8c-61.3-260.4-469-2511.7-469-2590.2c0-189.5,99.6-312,254.6-312c113,0,465.2,157,608.8,271.8c44,34.5,132.1,128.3,195.3,206.7c137.8,174.2,212.5,327.4,1049.1,2142.2l620.3,1347.7l220.2,105.3c1355.4,643.2,2180.5,1100.8,2437,1349.6c101.5,99.6,166.6,216.3,166.6,300.6c0,204.8-317.8,493.9-681.5,620.3C8916,1614.2,8483.4,1644.8,8150.3,1585.5z M8942.8,1183.4c166.6-42.1,375.2-141.7,469-225.9l76.6-68.9l-47.9-38.3C9147.7,609.1,8378.1,188,7254.3-346.2L6783.4-572l-761.9-1648.3c-419.3-905.5-781.1-1680.8-802.1-1719.1c-111-195.3-287.2-371.4-405.9-407.8c-32.5-9.6-44-3.8-44,19.1c0,17.2,128.3,717.9,287.2,1554.5c157,838.5,283.3,1527.7,279.5,1531.5c-3.8,3.8-212.5-84.2-463.3-197.2c-1123.7-501.6-1749.7-739-2333.6-886.3c-629.8-158.9-1106.5-168.5-1288.4-24.9c-61.3,47.9-758.1,1611.9-731.3,1638.7c11.5,11.5,59.4,21.1,105.3,19.1c76.6-1.9,114.9-24.9,453.7-277.6c539.8-402,647.1-469,769.6-495.8c84.2-17.2,126.4-15.3,206.8,5.7C2110.4-1445,3406.4-874.5,4932.2-193c1527.7,681.5,2841,1263.5,2919.4,1292.2c130.2,47.9,338.8,99.6,488.2,122.5C8450.8,1237,8818.4,1214.1,8942.8,1183.4z M3069.5,823.5c126.3-26.8,1860.8-549.4,1879.9-568.6c9.6-7.7-905.5-419.2-934.2-419.2c-36.4,0-1543,926.6-1529.6,940c38.3,34.5,199.1,72.7,315.9,74.7C2870.4,850.3,2991,838.8,3069.5,823.5z"/></g></g>
</svg>